<svg width="29" height="29" viewBox="0 0 29 29" fill="none" xmlns="http://www.w3.org/2000/svg">
<rect width="29" height="29" rx="6" fill="#397AFE"/>
<path fill-rule="evenodd" clip-rule="evenodd" d="M14.35 5.5C17.1114 5.5 19.35 7.73858 19.35 10.5C19.35 12.4801 18.199 14.1914 16.5295 15.0013L16.641 15.0004V23.1355C16.641 23.2415 16.6073 23.3442 16.5458 23.429L16.4946 23.489L15.3523 24.6313C14.9923 24.9913 14.4259 25.0195 14.0335 24.7154L13.9393 24.6324L12.7086 23.4057C12.5369 23.2303 12.5206 22.9606 12.6578 22.7673L12.7164 22.6987L13.3259 22.1025C13.5013 21.9308 13.5235 21.6616 13.3909 21.4652L13.3338 21.3953L12.3638 20.4016C12.2035 20.2157 12.2041 19.9456 12.3531 19.7612L12.4159 19.6964L13.3027 18.9299C13.4763 18.7563 13.4955 18.4869 13.3606 18.292L13.3027 18.2228L12.5008 17.4209C12.4258 17.3459 12.3771 17.2495 12.3606 17.146L12.3544 17.0674L12.3544 15.0859C10.5862 14.3153 9.35001 12.552 9.35001 10.5C9.35001 7.73858 11.5886 5.5 14.35 5.5ZM14.375 7.5C13.6156 7.5 13 8.11561 13 8.875C13 9.63439 13.6156 10.25 14.375 10.25C15.1344 10.25 15.75 9.63439 15.75 8.875C15.75 8.11561 15.1344 7.5 14.375 7.5Z" fill="white"/>
</svg>
