<svg width="24" height="24" viewBox="0 0 24 24" fill="none" xmlns="http://www.w3.org/2000/svg">
<path fill-rule="evenodd" clip-rule="evenodd" d="M19.7432 0.648229C19.6935 0.282154 19.3797 0 19 0L18.8982 0.00684662L18.8006 0.0267907C18.4832 0.114107 18.25 0.404822 18.25 0.75V4H15L14.8982 4.00685C14.5322 4.05651 14.25 4.3703 14.25 4.75L14.2568 4.85177C14.3065 5.21785 14.6203 5.5 15 5.5H18.25V8.75L18.2568 8.85177C18.3065 9.21785 18.6203 9.5 19 9.5L19.1018 9.49315C19.4678 9.44349 19.75 9.1297 19.75 8.75V5.5H23L23.1018 5.49315C23.4678 5.44349 23.75 5.1297 23.75 4.75L23.7432 4.64823C23.6935 4.28215 23.3797 4 23 4H19.75V0.75L19.7432 0.648229ZM6.37343 3.65414L8.17955 6.7067C8.62182 7.45419 8.62549 8.38237 8.18913 9.13334L7.63646 10.0845C7.36311 10.5549 7.41561 11.1415 7.75623 11.5546L7.83993 11.6468L11.6032 15.4101C11.988 15.7948 12.5684 15.8943 13.055 15.6709L13.1655 15.6135L14.1167 15.0609C14.8176 14.6536 15.6728 14.6296 16.3915 14.9878L16.5433 15.0705L19.5959 16.8766C20.9553 17.6809 21.4053 19.435 20.601 20.7945C20.4571 21.0376 20.2781 21.258 20.0697 21.4486C18.5863 22.8052 17.174 23.4125 15.8347 23.2128C13.0902 22.8036 9.95532 20.874 6.40214 17.4416L6.39633 17.4459L6.10181 17.1478L5.80409 16.8537C2.37595 13.2947 0.446397 10.1598 0.0371701 7.41529C-0.162518 6.07605 0.444762 4.6637 1.80139 3.18033C1.99201 2.9719 2.21245 2.79286 2.45553 2.64903C3.81498 1.84468 5.56909 2.29468 6.37343 3.65414ZM3.06659 3.6818C2.92549 3.76528 2.79755 3.8692 2.6869 3.99018C1.53915 5.24517 1.0873 6.32117 1.22405 7.23832C1.5878 9.67787 3.38274 12.6101 6.64745 16L7.02591 16.3757L7.58615 16.9132C10.8397 19.9873 13.6546 21.6745 16.0117 22.0259C16.9288 22.1627 18.0048 21.7109 19.2598 20.5631C19.3808 20.4525 19.4847 20.3245 19.5682 20.1834C20.0351 19.3943 19.7739 18.3762 18.9848 17.9093L15.9697 16.1245L15.8562 16.0618C15.4961 15.8823 15.0686 15.8956 14.7195 16.0984L13.718 16.6788L13.5558 16.7614C12.6113 17.1951 11.493 16.9968 10.7547 16.2586L6.95178 12.4537L6.83036 12.318C6.16918 11.5161 6.07438 10.3843 6.5989 9.48162L7.15157 8.53046C7.36964 8.15517 7.3678 7.69131 7.14678 7.31776L5.34067 4.2652L5.25788 4.13861C4.76138 3.44935 3.81182 3.24087 3.06659 3.6818Z" fill="#007AFF"/>
</svg>
