<svg width="27" height="23" viewBox="0 0 27 23" fill="none" xmlns="http://www.w3.org/2000/svg">
<path fill-rule="evenodd" clip-rule="evenodd" d="M17.3562 1.52205C16.805 1.02507 16.0893 0.75 15.3471 0.75H11.2825C10.5406 0.75 9.825 1.02493 9.27392 1.52168L8.47615 2.24079C7.93398 2.72952 7.22994 3 6.5 3C3.18629 3 0.5 5.68629 0.5 9V16.5C0.5 19.8137 3.18629 22.5 6.5 22.5H20C23.3137 22.5 26 19.8137 26 16.5V9C26 5.68629 23.3137 3 20 3L19.7854 2.99118C19.2163 2.94433 18.6759 2.71212 18.2489 2.32708L17.3562 1.52205ZM11.2825 1.95H15.3471C15.7924 1.95 16.2219 2.11504 16.5526 2.41323L17.4453 3.21825C18.0667 3.77861 18.8545 4.11861 19.687 4.18714L19.9507 4.19899C22.651 4.2 24.8 6.34903 24.8 9V16.5C24.8 19.151 22.651 21.3 20 21.3H6.5C3.84903 21.3 1.7 19.151 1.7 16.5V9C1.7 6.42068 3.73444 4.31653 6.28619 4.20468L6.7362 4.19328C7.67771 4.13965 8.57566 3.76667 9.27961 3.13212L10.0774 2.41301C10.408 2.11496 10.8374 1.95 11.2825 1.95ZM13.25 6C16.4256 6 19 8.57436 19 11.75C19 14.9256 16.4256 17.5 13.25 17.5C10.0744 17.5 7.5 14.9256 7.5 11.75C7.5 8.57436 10.0744 6 13.25 6ZM8.7 11.75C8.7 9.2371 10.7371 7.2 13.25 7.2C15.7629 7.2 17.8 9.2371 17.8 11.75C17.8 14.2629 15.7629 16.3 13.25 16.3C10.7371 16.3 8.7 14.2629 8.7 11.75Z" fill="#545458" fill-opacity="0.65"/>
</svg>
