<svg width="36" height="36" viewBox="0 0 36 36" fill="none" xmlns="http://www.w3.org/2000/svg">
<path fill-rule="evenodd" clip-rule="evenodd" d="M18 36C27.9411 36 36 27.9411 36 18C36 8.05887 27.9411 0 18 0C8.05887 0 0 8.05887 0 18C0 27.9411 8.05887 36 18 36Z" fill="#EDEDFF"/>
<path fill-rule="evenodd" clip-rule="evenodd" d="M19.3131 10.25C19.8705 10.25 20.4027 10.4827 20.7813 10.8919L22.5 12.75H24.25C25.6307 12.75 26.75 13.8693 26.75 15.25V22.75C26.75 24.1307 25.6307 25.25 24.25 25.25H11.75C10.3693 25.25 9.25 24.1307 9.25 22.75V15.25C9.25 13.8693 10.3693 12.75 11.75 12.75H13.5L15.2187 10.8919C15.5973 10.4827 16.1295 10.25 16.6869 10.25H19.3131ZM18 14.25C15.6528 14.25 13.75 16.1528 13.75 18.5C13.75 20.8472 15.6528 22.75 18 22.75C20.3472 22.75 22.25 20.8472 22.25 18.5C22.25 16.1528 20.3472 14.25 18 14.25ZM18 15.25C19.7949 15.25 21.25 16.7051 21.25 18.5C21.25 20.2949 19.7949 21.75 18 21.75C16.2051 21.75 14.75 20.2949 14.75 18.5C14.75 16.7051 16.2051 15.25 18 15.25Z" fill="#007AFF"/>
</svg>
