<svg width="29" height="29" viewBox="0 0 29 29" fill="none" xmlns="http://www.w3.org/2000/svg">
<rect width="29" height="29" rx="6" fill="#4BD763"/>
<path fill-rule="evenodd" clip-rule="evenodd" d="M21.5861 6.91951C19.706 5.03785 17.2057 4.00106 14.5417 4C9.05293 4 4.58569 8.46552 4.5835 13.9544C4.58279 15.7089 5.04134 17.4216 5.91276 18.9312L4.5 24.0899L9.77899 22.7056C11.2335 23.4986 12.8711 23.9166 14.5378 23.9173H14.5419C20.0301 23.9173 24.4978 19.4512 24.5 13.9623C24.5011 11.3023 23.4662 8.80117 21.5861 6.91951ZM14.5419 22.236H14.5385C13.0533 22.2354 11.5966 21.8366 10.3258 21.0827L10.0235 20.9034L6.89092 21.7248L7.72708 18.6715L7.53023 18.3585C6.70171 17.0411 6.26413 15.5184 6.26478 13.955C6.26657 9.39295 9.97959 5.68134 14.5451 5.68134C16.7558 5.68218 18.8339 6.544 20.3966 8.10794C21.9593 9.67188 22.8194 11.7508 22.8186 13.9617C22.8168 18.5242 19.1039 22.236 14.5419 22.236ZM17.3816 15.2297C17.6097 15.3127 18.833 15.9145 19.0819 16.039C19.1304 16.0633 19.1758 16.0852 19.2179 16.1056C19.3915 16.1894 19.5087 16.2461 19.5588 16.3296C19.621 16.4333 19.621 16.9313 19.4136 17.5124C19.2062 18.0934 18.2122 18.6238 17.7341 18.6952C17.3054 18.7592 16.7629 18.7859 16.1669 18.5966C15.8055 18.482 15.3421 18.3289 14.7484 18.0726C12.4162 17.0659 10.84 14.8063 10.5416 14.3786C10.5206 14.3486 10.506 14.3276 10.4978 14.3167L10.4958 14.314C10.3641 14.1384 9.48183 12.9615 9.48183 11.7436C9.48183 10.5978 10.0448 9.9972 10.304 9.72077C10.3217 9.70183 10.3381 9.68441 10.3527 9.66844C10.5807 9.41941 10.8503 9.35718 11.0162 9.35718C11.182 9.35718 11.3481 9.35869 11.4931 9.36591C11.5109 9.3668 11.5295 9.36669 11.5487 9.36657C11.6937 9.36571 11.8746 9.36463 12.0529 9.79294C12.1216 9.95778 12.222 10.2022 12.3279 10.46C12.542 10.981 12.7785 11.5565 12.8201 11.6398C12.8823 11.7643 12.9238 11.9096 12.8408 12.0756C12.8285 12.1004 12.817 12.1238 12.8061 12.1461C12.7437 12.2735 12.6979 12.3671 12.592 12.4906C12.5505 12.5391 12.5076 12.5913 12.4647 12.6436C12.379 12.7479 12.2934 12.8521 12.2188 12.9264C12.0942 13.0504 11.9645 13.185 12.1097 13.434C12.2548 13.6831 12.7542 14.4977 13.4939 15.1572C14.289 15.8662 14.9801 16.1659 15.3304 16.3178C15.3988 16.3474 15.4542 16.3715 15.4948 16.3918C15.7436 16.5163 15.8888 16.4956 16.0339 16.3295C16.1791 16.1636 16.656 15.6033 16.8218 15.3543C16.9877 15.1052 17.1536 15.1467 17.3816 15.2297Z" fill="white"/>
</svg>
