<svg width="31" height="21" viewBox="0 0 31 21" fill="none" xmlns="http://www.w3.org/2000/svg">
<path fill-rule="evenodd" clip-rule="evenodd" d="M12 0C13.4801 0 14.8976 0.212104 16.2067 0.600006L16.6079 0.725496C17.5317 0.536571 18.501 0.436055 19.5 0.436055C25.8513 0.436055 31 3.92646 31 9.50989C31 12.5259 29.6173 14.7296 26.852 16.121L26.4926 16.2964L26.4163 16.3391C25.282 17.0429 25.2327 18.0251 25.7664 18.9448L25.8428 19.0698L25.8998 19.1756C25.9647 19.3214 25.9845 19.4842 25.9551 19.6429C25.8819 20.0381 25.5278 20.3102 25.1372 20.2913L25.03 20.2788L24.7487 20.2199C23.4417 19.9137 22.2134 19.1745 21.0639 18.0022C19.482 18.1052 17.9452 17.9821 16.5145 17.6717L16.5486 17.66C14.671 18.2571 12.5611 18.5316 10.3681 18.3883C9.16988 19.6142 7.88963 20.3877 6.52739 20.7087L6.23422 20.7706C5.78299 20.8548 5.34892 20.5573 5.2647 20.106C5.2337 19.9399 5.25422 19.7694 5.3219 19.6167L5.38145 19.5059C6.0204 18.5064 6.0204 17.4176 4.78304 16.6474L4.7034 16.6027L4.62171 16.5619C1.54057 15.1153 0 12.7609 0 9.49851C0 3.65377 5.37258 0 12 0ZM12 1.2C5.70091 1.2 1.2 4.60751 1.2 9.49851C1.2 12.2892 2.46609 14.2242 5.15791 15.4883L5.29068 15.5562L5.41721 15.6286C6.84986 16.5205 7.29194 17.8878 6.85537 19.2098L6.79345 19.382L7.07285 19.2751C7.90833 18.9293 8.71965 18.3581 9.50999 17.5495L9.89572 17.1549L10.4464 17.1909C17.1161 17.6266 22.8 13.928 22.8 9.49851C22.8 4.98504 18.0181 1.2 12 1.2ZM18.7712 1.65549C19.0118 1.64261 19.2548 1.63605 19.5 1.63605C25.5121 1.63605 29.8 4.872 29.8 9.50989C29.8 12.1538 28.5991 13.9834 26.036 15.1832L25.9067 15.2491L25.7835 15.3195L25.5991 15.4405C24.4092 16.2661 24.0145 17.4609 24.3524 18.6682L24.4058 18.8411L24.1182 18.7195L23.8323 18.5822C23.1676 18.2432 22.5207 17.774 21.9207 17.162L21.5352 16.769L20.9859 16.8048L20.5201 16.8282C19.9016 16.8501 19.2932 16.8349 18.6993 16.7852L19.0009 16.6278C22.0177 15.0049 24 12.4273 24 9.49851C24 6.24106 21.9284 3.36659 18.7712 1.65549ZM18.7712 1.65549C18.7608 1.64986 18.7503 1.64423 18.7399 1.63862L18.771 1.6555C18.771 1.6555 18.7711 1.6555 18.7712 1.65549Z" fill="#979797"/>
</svg>
