<svg width="31" height="21" viewBox="0 0 31 21" fill="none" xmlns="http://www.w3.org/2000/svg">
<path fill-rule="evenodd" clip-rule="evenodd" d="M12 0C18.6274 0 24 4.25263 24 9.49851C24 14.7444 17.6406 18.8634 10.3681 18.3883C7.70922 21.1085 4.66783 21.0465 4.51201 20.8586C4.35619 20.6707 4.7425 20.5054 5.38145 19.5059C6.0204 18.5064 6.0204 17.4176 4.78304 16.6474L4.7034 16.6027L4.62171 16.5619C1.54057 15.1153 0 12.7609 0 9.49851C0 3.65377 5.37258 0 12 0ZM19.7804 0.502277C26.0021 0.603488 31 4.07282 31 9.57383C31 12.5898 29.6173 14.7935 26.852 16.1849L26.4926 16.3604L26.4163 16.4031C25.2305 17.1389 25.2305 18.1789 25.8428 19.1338C26.4551 20.0886 26.8253 20.2465 26.676 20.426C26.5267 20.6055 23.612 20.6647 21.0639 18.0662C20.5147 18.1019 19.971 18.1104 19.4353 18.0933C23.0637 16.2416 25.5 13.1378 25.5 9.49851C25.5 5.92825 23.4481 2.80265 20.2847 0.805168L19.9941 0.626706L19.7804 0.502277Z" fill="#007AFF"/>
</svg>
