<svg width="23" height="24" viewBox="0 0 23 24" fill="none" xmlns="http://www.w3.org/2000/svg">
<path fill-rule="evenodd" clip-rule="evenodd" d="M21.0197 1.35147L20.9285 1.2691C20.4572 0.884673 19.7619 0.912132 19.3226 1.35147L18.1919 2.48214L20.6668 4.95701L21.7975 3.82635L21.8798 3.73521C22.2643 3.26388 22.2368 2.56863 21.7975 2.12929L21.0197 1.35147ZM17.7556 2.91701L18.4629 3.62399C18.4629 3.62399 10.417 11.6231 10.0228 12.0654C9.84995 12.2594 9.7998 12.5135 9.79798 12.7376C9.79528 13.0701 10.0656 13.3313 10.3981 13.3337C10.6326 13.3353 10.8974 13.2915 11.0835 13.1261C11.4958 12.7596 19.5235 4.68465 19.5235 4.68465L20.2305 5.39188L11.1157 14.5081C10.7378 14.886 9.94376 15.1126 8.73355 15.188L8.46785 15.2018H8.42556C8.18032 15.1914 7.98382 15.0061 7.95139 14.7712L7.94714 14.6811L7.96098 14.4154C8.03094 13.2916 8.23133 12.5267 8.56214 12.1206L8.64079 12.0333L17.7556 2.91701ZM14.757 4.15224L13.256 5.65224H2C1.72386 5.65224 1.5 5.8761 1.5 6.15224V21.1522C1.5 21.4284 1.72386 21.6522 2 21.6522H17C17.2761 21.6522 17.5 21.4284 17.5 21.1522V9.89424L19 8.39524V21.1522C19 22.2568 18.1046 23.1522 17 23.1522H2C0.89543 23.1522 0 22.2568 0 21.1522V6.15224C0 5.04767 0.89543 4.15224 2 4.15224H14.757Z" fill="#007AFF"/>
</svg>
