<svg width="29" height="29" viewBox="0 0 29 29" fill="none" xmlns="http://www.w3.org/2000/svg">
<rect width="29" height="29" rx="6" fill="#FF2C55"/>
<path fill-rule="evenodd" clip-rule="evenodd" d="M21.05 15.218C22.3511 13.1446 22.0563 11.1273 20.4204 9.75464C18.7281 8.33463 16.2051 8.55537 14.7851 10.2477L14.4922 10.5957L14.1995 10.2477C12.7795 8.55537 10.2565 8.33463 8.56418 9.75464C6.87188 11.1746 6.89486 13.015 8.07115 15.39C8.85534 16.9733 10.9959 19.1825 14.4928 22.0175C17.9968 18.8668 20.1826 16.6003 21.05 15.218ZM14.4547 20.4329L13.8289 19.9044C11.2983 17.7392 9.72937 16.0343 9.14648 14.8574C8.13003 12.8051 8.20436 11.6231 9.33552 10.6739C10.5201 9.67989 12.2862 9.8344 13.2803 11.019L14.492 12.4598L15.7033 11.0202C16.6983 9.8344 18.4645 9.67989 19.6491 10.6739C20.8379 11.6714 21.0059 13.0308 20.0335 14.5802C19.3572 15.658 17.6936 17.4368 15.0757 19.8618L14.4547 20.4329Z" fill="white"/>
</svg>
