<svg width="29" height="29" viewBox="0 0 29 29" fill="none" xmlns="http://www.w3.org/2000/svg">
<rect width="29" height="29" rx="6" fill="#4BA0FE"/>
<path fill-rule="evenodd" clip-rule="evenodd" d="M16.1 8.375C16.1 9.27246 15.3725 10 14.475 10C13.5775 10 12.85 9.27246 12.85 8.375C12.85 7.47754 13.5775 6.75 14.475 6.75C15.3725 6.75 16.1 7.47754 16.1 8.375ZM16 20.05V11.5H11.75V11.75H11.8C12.4627 11.75 13 12.2873 13 12.95V20.05C13 20.7127 12.4627 21.25 11.8 21.25H11.75V21.5H17.25V21.25H17.2C16.5373 21.25 16 20.7127 16 20.05Z" fill="white"/>
</svg>
