<svg width="22" height="22" viewBox="0 0 22 22" fill="none" xmlns="http://www.w3.org/2000/svg">
<path fill-rule="evenodd" clip-rule="evenodd" d="M22 11C22 4.92487 17.0751 0 11 0C4.92487 0 0 4.92487 0 11C0 17.0751 4.92487 22 11 22C17.0751 22 22 17.0751 22 11ZM1 11C1 5.47715 5.47715 1 11 1C16.5228 1 21 5.47715 21 11C21 16.5228 16.5228 21 11 21C5.47715 21 1 16.5228 1 11ZM12 8.5V16.5H13V17H9V16.5H10V9H9V8.5H12ZM12.2 5.85C12.2 5.10442 11.5956 4.5 10.85 4.5C10.1044 4.5 9.5 5.10442 9.5 5.85C9.5 6.59558 10.1044 7.2 10.85 7.2C11.5956 7.2 12.2 6.59558 12.2 5.85Z" fill="#007AFF"/>
</svg>
