<svg width="12" height="12" viewBox="0 0 12 12" fill="none" xmlns="http://www.w3.org/2000/svg">
<path fill-rule="evenodd" clip-rule="evenodd" d="M9.09848 8.18352L11.4508 9.64403C11.8174 9.93379 11.5601 10.6493 11.2558 11.0504L11.1901 11.1312L11.0754 11.2527C10.5612 11.7571 9.82909 11.9739 9.12309 11.8311L8.96074 11.7917L8.58891 11.6791C6.99672 11.1662 5.49947 10.2839 4.09719 9.03236L4.08553 9.04473C3.9468 8.91444 3.81024 8.78211 3.67585 8.64772L3.55055 8.51922L3.42187 8.39374L3.22183 8.19053L3.02487 7.98407L3.03656 7.97165C1.78535 6.56958 0.903328 5.07259 0.390504 3.48068L0.277918 3.10885C0.0639815 2.35442 0.273727 1.54797 0.816899 0.994167L0.938363 0.879472C1.31585 0.549417 2.1151 0.225975 2.42556 0.618783L3.88607 2.97111C4.04147 3.22276 4.07643 3.5282 3.98631 3.80551L3.94001 3.92239L3.46601 4.48757C3.31925 4.79936 3.34444 5.16158 3.52556 5.44788L3.60076 5.55144C4.0251 6.17923 4.16641 6.44858 4.89512 7.17729C5.62384 7.90601 6.51815 8.46883 6.51815 8.46883L6.62171 8.54403C6.87223 8.70251 7.18086 8.74161 7.46298 8.65059L7.58202 8.60358L8.1472 8.12958L8.26409 8.08329C8.50178 8.00604 8.76014 8.02069 8.98758 8.12431L9.09848 8.18352L11.4508 9.64403L9.09848 8.18352Z" fill="#8E8E93"/>
</svg>
