<svg width="36" height="36" viewBox="0 0 36 36" fill="none" xmlns="http://www.w3.org/2000/svg">
<path fill-rule="evenodd" clip-rule="evenodd" d="M18 36C27.9411 36 36 27.9411 36 18C36 8.05887 27.9411 0 18 0C8.05887 0 0 8.05887 0 18C0 27.9411 8.05887 36 18 36Z" fill="#EDEDFF"/>
<path fill-rule="evenodd" clip-rule="evenodd" d="M11.0601 22.1207L14.1881 25.2495C13.9796 25.4001 10.8277 27.0081 10.062 26.2423C9.29626 25.4766 10.9095 22.3285 11.0601 22.1207ZM20.7499 12.3786L23.9319 15.5606L15.2759 24.2146L12.0939 21.0326L20.7499 12.3786ZM24.0315 10.5134L25.7993 12.2812C26.1599 12.6416 26.1876 13.2088 25.8826 13.6011L25.7992 13.6953L24.9929 14.5006L21.8109 11.3186L22.6172 10.5133C23.0078 10.123 23.6409 10.123 24.0315 10.5134Z" fill="#007AFF"/>
</svg>
