<svg width="23" height="22" viewBox="0 0 23 22" fill="none" xmlns="http://www.w3.org/2000/svg">
<path d="M22.0847 19.416C21.9341 19.6707 21.7465 19.9016 21.5282 20.1013C19.9741 21.5225 18.75 22.04 17.347 21.8308C14.4718 21.402 11.1313 19.5043 7.40887 15.9084L7.40279 15.9129L7.09424 15.6006L6.78235 15.2924C3.19096 11.564 0.994207 8.30639 0.565493 5.43115C0.356296 4.02814 0.598851 2.58964 2.02008 1.03563C2.21977 0.817279 2.45071 0.629713 2.70537 0.479038C4.12956 -0.363615 5.81878 -0.101891 6.66142 1.3223L8.55354 4.52022C9.01687 5.30331 9.02071 6.27568 8.56358 7.06241L7.98459 8.05886C7.69823 8.5517 7.62775 9.37326 7.98459 9.80605L8.07228 9.90257C8.07228 9.90257 9.13048 11.1684 10.25 12.2756C11.3696 13.3828 12.598 14.3783 12.598 14.3783C13.001 14.7813 13.6091 14.8855 14.1189 14.6515L14.2346 14.5914L15.2311 14.0124C15.9653 13.5858 16.8893 13.4419 17.6422 13.8172L17.8013 13.9037L20.9992 15.7958C22.4234 16.6385 22.9274 17.9918 22.0847 19.416Z" fill="#007AFF"/>
</svg>
