<svg width="25" height="25" viewBox="0 0 25 25" fill="none" xmlns="http://www.w3.org/2000/svg">
<path fill-rule="evenodd" clip-rule="evenodd" d="M21.0444 5.55123L20.938 5.42895L21.4509 5.08039L21.5325 4.98407C21.7621 4.65396 21.7255 4.22355 21.451 3.94898C21.1386 3.63656 20.632 3.63656 20.3196 3.94898L19.788 4.27595L19.6485 4.15458C19.0511 3.65546 18.4 3.21863 17.7052 2.85447L17.523 2.76295L17.7326 2.22768L17.7691 2.11995C17.8661 1.72586 17.6711 1.33245 17.3088 1.17868C16.9021 1.00604 16.4325 1.19579 16.2598 1.6025L16.039 2.14995L15.8843 2.0986C15.1515 1.86967 14.3858 1.71541 13.5964 1.6452L13.393 1.63095L13.4 0.999998L13.3915 0.886542C13.3268 0.485868 12.9936 0.199951 12.6 0.199951C12.1582 0.199951 11.8 0.558123 11.8 0.999951V1.62995L11.6022 1.6446C10.8105 1.71579 10.0431 1.87087 9.30972 2.10089L9.12901 2.15995L8.9536 1.61207L8.90323 1.51009C8.69316 1.16283 8.27705 1.02257 7.91216 1.17C7.50251 1.33551 7.30459 1.80177 7.4701 2.21143L7.65801 2.77095L7.48904 2.8569C6.79604 3.22119 6.14672 3.6573 5.5513 4.15559L5.41601 4.27195L4.98045 3.84902L4.88413 3.7675C4.55402 3.53782 4.12361 3.57442 3.84905 3.84898C3.53663 4.1614 3.53663 4.66794 3.84905 4.98036L4.28401 5.40195L4.15464 5.55144C3.65553 6.14883 3.21869 6.79997 2.85453 7.49481L2.76501 7.67095L2.22774 7.46733L2.12002 7.43084C1.72592 7.33382 1.33251 7.52888 1.17874 7.89114C1.00611 8.29785 1.19586 8.76749 1.60256 8.94013L2.15301 9.14995L2.0987 9.31559C1.85089 10.1088 1.69056 10.9406 1.62958 11.8H1.00006L0.886603 11.8085C0.485929 11.8731 0.200012 12.2064 0.200012 12.6C0.200012 13.0418 0.558184 13.4 1.00001 13.4L1.63001 13.399L1.64449 13.5958C1.71536 14.3856 1.8697 15.1512 2.09857 15.8829L2.15401 16.05L1.60262 16.2597L1.50149 16.3119C1.15794 16.528 1.02497 16.9465 1.17874 17.3088C1.35138 17.7155 1.82103 17.9052 2.22773 17.7326L2.76501 17.528L2.85382 17.7049C3.2186 18.3999 3.65557 19.051 4.15504 19.6479L4.27801 19.789L3.84908 20.2195L3.76756 20.3158C3.53789 20.6459 3.57448 21.0764 3.84905 21.3509C4.16146 21.6633 4.668 21.6633 4.98042 21.3509L5.40801 20.921L5.5515 21.0453C6.14889 21.5444 6.80003 21.9813 7.49487 22.3454L7.67801 22.437L7.46739 22.9722L7.4309 23.0799C7.33388 23.474 7.52895 23.8675 7.8912 24.0212C8.29791 24.1939 8.76756 24.0041 8.94019 23.5974L9.15701 23.048L9.31565 23.1013C10.0482 23.3301 10.8137 23.4845 11.6034 23.5552L11.8 23.569V24.1999L11.8085 24.3134C11.8732 24.714 12.2065 25 12.6 25C13.0418 25 13.4 24.6418 13.4 24.2L13.399 23.569L13.597 23.5554C14.3889 23.4842 15.1566 23.3291 15.8902 23.0991L16.065 23.04L16.2464 23.5878L16.2968 23.6898C16.5069 24.0371 16.923 24.1773 17.2879 24.0299C17.6975 23.8644 17.8954 23.3981 17.7299 22.9885L17.537 22.43L17.711 22.343C18.404 21.9787 19.0533 21.5426 19.6487 21.0443L19.783 20.927L20.2196 21.3509L20.3159 21.4324C20.646 21.6621 21.0764 21.6255 21.351 21.3509C21.6634 21.0385 21.6634 20.532 21.351 20.2195L20.915 19.798L21.0454 19.6485C21.5445 19.0511 21.9813 18.3999 22.3455 17.7051L22.429 17.537L22.9723 17.7326L23.08 17.7691C23.4741 17.8661 23.8675 17.671 24.0213 17.3088C24.1939 16.9021 24.0042 16.4324 23.5975 16.2598L23.044 16.054L23.0477 16.0512C23.3063 15.268 23.4792 14.4459 23.5553 13.5963L23.569 13.399L24.2 13.4L24.3134 13.3914C24.7141 13.3268 25 12.9935 25 12.6C25 12.1581 24.6418 11.8 24.2 11.8L23.569 11.799L23.5554 11.6021C23.4842 10.8104 23.3291 10.043 23.0991 9.30966L23.048 9.15595L23.5879 8.95354L23.6899 8.90317C24.0371 8.6931 24.1774 8.27699 24.03 7.9121C23.8645 7.50245 23.3982 7.30453 22.9885 7.47004L22.431 7.66295L22.3431 7.48898C21.9788 6.79598 21.5427 6.14666 21.0444 5.55123ZM12.3625 2.80277L12.6 2.79995L13.0012 2.80801L13.3983 2.832L13.9684 2.89473L14.234 2.93555L14.4999 2.98379C18.9997 3.86474 22.4 7.83525 22.4 12.6L22.3943 12.9373L22.3741 13.3186L22.3481 13.6147L22.306 13.9629L22.2415 14.3649C22.1931 14.631 22.134 14.8934 22.0645 15.1516L21.9484 15.5493L21.8838 15.747L21.7783 16.0425C20.6041 19.1717 17.8754 21.5408 14.5328 22.2094L14.234 22.2643L14.05 22.2934L13.6428 22.3451L13.5106 22.3582L13.1938 22.3823L12.8743 22.3962L12.6 22.4L12.0065 22.3823L11.7828 22.3664L11.3991 22.3271L10.943 22.2605L10.7463 22.2249L10.3452 22.1393C9.81441 22.0143 9.30028 21.8462 8.80671 21.6388L8.39671 21.4553L8.06874 21.2917L7.80099 21.1465L7.6142 21.0387L7.3618 20.884L7.14728 20.7441L6.85054 20.537C5.38697 19.475 4.22858 18.0181 3.53183 16.3227L3.38299 15.9375L3.31623 15.747L3.23576 15.4986L3.15396 15.2192C3.10212 15.0319 3.0557 14.8423 3.01489 14.6506L2.92818 14.189L2.90599 14.0462L2.88668 13.909L2.8388 13.4779C2.81313 13.1887 2.80001 12.8959 2.80001 12.6C2.80001 11.6948 2.92274 10.8182 3.15246 9.98608L3.27277 9.58426L3.36046 9.32534L3.49783 8.96107C3.97906 7.75843 4.69173 6.6734 5.58078 5.76106L5.86401 5.4819L6.23197 5.15068C6.42587 4.98477 6.62633 4.82629 6.8329 4.6757L7.18907 4.42789L7.3618 4.31588L7.69201 4.11565L7.94913 3.97172L8.22809 3.82678L8.57286 3.66298C8.80516 3.55814 9.04227 3.46209 9.28378 3.37526L9.6573 3.24945L9.8584 3.1886L10.1071 3.11984L10.4431 3.03808L10.7463 2.97502L11.0938 2.91498L11.3399 2.88021L11.6249 2.84785L11.8405 2.82895L12.3625 2.80277ZM18.0677 13.1998L21.3799 13.1994C21.0718 17.78 17.2586 21.4 12.6 21.4C11.3376 21.4 10.1374 21.1341 9.05208 20.6555L8.72999 20.5055L10.3852 17.6358C11.0628 17.9343 11.8121 18.1 12.6 18.1C15.3561 18.1 17.6387 16.0727 18.0381 13.4279L18.0677 13.1998ZM9.34717 8.16452L7.69073 5.29552L7.45084 5.46291C5.23917 7.06136 3.80001 9.66259 3.80001 12.6C3.80001 15.6422 5.3438 18.3239 7.69073 19.9044L9.34717 17.0354L9.1558 16.8883C7.90226 15.8802 7.10001 14.3337 7.10001 12.6C7.10001 10.7795 7.98449 9.16556 9.34717 8.16452ZM12.6 8.29995C14.9748 8.29995 16.9 10.2251 16.9 12.6C16.9 14.9748 14.9748 16.9 12.6 16.9C10.2252 16.9 8.30001 14.9748 8.30001 12.6C8.30001 10.2251 10.2252 8.29995 12.6 8.29995ZM21.3587 11.7413C20.927 7.28412 17.1704 3.79995 12.6 3.79995C11.2114 3.79995 9.89793 4.12158 8.72999 4.69439L10.3852 7.56409L10.6426 7.45846C11.2507 7.22681 11.9106 7.09995 12.6 7.09995C15.4345 7.09995 17.7682 9.24417 18.0676 11.9991L21.3798 11.9995L21.3587 11.7413Z" fill="#007AFF"/>
</svg>
