<svg id="Layer_1" data-name="Layer 1" xmlns="http://www.w3.org/2000/svg" viewBox="0 0 122.64 122.88"><title>stories</title><path d="M104,31.15c2.31,5.65,5.11,11.94,6.52,17.55a51.83,51.83,0,0,1,1.54,15.24,50.9,50.9,0,0,1-3,15,49.87,49.87,0,0,1-7.24,13.23A49.12,49.12,0,0,1,91,102.49h0a54.85,54.85,0,0,1-4.74,3q-2.44,1.38-5,2.49a52,52,0,0,1-11.38,3.56,49.5,49.5,0,0,1-11.67.82L57,112.28l-2.76,10.28,1.89.15A60.44,60.44,0,0,0,71.05,122a63,63,0,0,0,14.51-4.42q2.94-1.3,5.83-2.93c1.87-1.06,3.75-2.25,5.62-3.55A59.59,59.59,0,0,0,119,82.48,61.68,61.68,0,0,0,120.7,46.1c-2-5.77-4.18-13.39-8.31-19.22-2.73-3.86-10.73-1.57-8.35,4.27ZM56,44.74a5.34,5.34,0,1,1,10.67,0V56.1H78a5.34,5.34,0,0,1,0,10.68H66.66V78.14a5.34,5.34,0,1,1-10.67,0V66.78H44.62a5.34,5.34,0,1,1,0-10.68H56V44.74ZM24.25,110.36a59.9,59.9,0,0,0,11.46,7l1.69.79,2.75-10.25L39,107.35a49.27,49.27,0,0,1-8.38-5.28,50.34,50.34,0,0,1-7.25-6.93l-.85-1-9.17,5.29,1.18,1.43a61.27,61.27,0,0,0,9.72,9.48ZM.57,69.53A59.49,59.49,0,0,0,4,82.67l.65,1.72,9.17-5.29-.44-1.24a49.32,49.32,0,0,1-2.4-9.72,48.75,48.75,0,0,1-.37-10l.07-1.29L.41,54.15.24,56A58.82,58.82,0,0,0,.57,69.53ZM8.38,31c-.92,1.55-1.75,3.11-2.51,4.7l-.81,1.7,10.25,2.75L15.89,39c.58-1.13,1.19-2.23,1.83-3.29s1.35-2.13,2.1-3.17a61.6,61.6,0,0,1,3.9-4.93A53.89,53.89,0,0,1,28,23.22l.93-.85-5.31-9.21-1.44,1.25a66.4,66.4,0,0,0-5.74,5.65,72.56,72.56,0,0,0-5.15,6.41c-1.05,1.48-2,3-2.92,4.5ZM50.44.78A54.27,54.27,0,0,0,40.27,3.52l-1.74.65,5.3,9.18,1.22-.43a44.39,44.39,0,0,1,15.71-2.43c1.21,0,2.48.11,3.79.26s2.51.33,3.74.58,2.55.56,3.8.93,2.5.8,3.79,1.3h0a5.24,5.24,0,1,0,3.79-9.77C78.15,3.2,76.59,2.67,75,2.2s-3.12-.84-4.65-1.15S67.28.5,65.76.33,62.63.05,61,0A55.87,55.87,0,0,0,50.44.78Z"/></svg>